<mxfile>
    <diagram id="paJUNMJkS3yGhjr_31bU" name="Page-1">
        <mxGraphModel dx="683" dy="479" grid="1" gridSize="10" guides="1" tooltips="1" connect="1" arrows="1" fold="1" page="1" pageScale="1" pageWidth="850" pageHeight="1100" math="0" shadow="0">
            <root>
                <mxCell id="0"/>
                <mxCell id="1" parent="0"/>
                <mxCell id="6" value="" style="rounded=0;whiteSpace=wrap;html=1;fillColor=none;strokeColor=#F0D67F;" vertex="1" parent="1">
                    <mxGeometry x="80" y="120" width="520" height="230" as="geometry"/>
                </mxCell>
                <mxCell id="7" value="" style="rounded=0;whiteSpace=wrap;html=1;fillColor=none;strokeColor=#F024B3;" vertex="1" parent="1">
                    <mxGeometry x="80" y="100" width="520" height="20" as="geometry"/>
                </mxCell>
                <mxCell id="11" value="Searchbox" style="rounded=0;whiteSpace=wrap;html=1;fillColor=none;strokeColor=#F024B3;" vertex="1" parent="1">
                    <mxGeometry x="440" y="100" width="130" height="20" as="geometry"/>
                </mxCell>
                <mxCell id="12" value="" style="rounded=0;whiteSpace=wrap;html=1;fillColor=none;strokeColor=#F0D67F;" vertex="1" parent="1">
                    <mxGeometry x="80" y="120" width="520" height="20" as="geometry"/>
                </mxCell>
                <mxCell id="13" value="" style="html=1;strokeWidth=1;shadow=0;dashed=0;shape=mxgraph.ios7ui.rrect;rSize=3;strokeColor=#0080F0;gradientColor=none;" vertex="1" parent="1">
                    <mxGeometry x="150" y="124" width="430" height="12.5" as="geometry"/>
                </mxCell>
                <mxCell id="14" value="Chill" style="strokeColor=inherit;fillColor=inherit;gradientColor=inherit;html=1;strokeWidth=1;shadow=0;dashed=0;shape=mxgraph.ios7ui.leftButton;rSize=3;fontSize=8;" vertex="1" parent="13">
                    <mxGeometry x="-60" width="101" height="12.5" as="geometry"/>
                </mxCell>
                <mxCell id="15" value="Dupstep" style="strokeColor=inherit;fillColor=inherit;gradientColor=inherit;html=1;strokeWidth=1;shadow=0;dashed=0;shape=mxgraph.ios7ui.rrect;rSize=0;fontSize=8;" vertex="1" parent="13">
                    <mxGeometry x="82" width="41" height="12.5" as="geometry"/>
                </mxCell>
                <mxCell id="16" value="Item 4" style="strokeColor=inherit;fillColor=inherit;gradientColor=inherit;html=1;strokeWidth=1;shadow=0;dashed=0;shape=mxgraph.ios7ui.rightButton;rSize=3;fontSize=8;" vertex="1" parent="13">
                    <mxGeometry x="123" width="307" height="12.5" as="geometry"/>
                </mxCell>
                <mxCell id="17" value="Deep" style="html=1;strokeWidth=1;shadow=0;dashed=0;shape=mxgraph.ios7ui.rrect;rSize=0;strokeColor=#0080F0;fillColor=#0080F0;fontColor=#ffffff;fontSize=8;" vertex="1" parent="13">
                    <mxGeometry x="41" width="41" height="12.5" as="geometry"/>
                </mxCell>
                <mxCell id="30" value="" style="rounded=0;whiteSpace=wrap;html=1;strokeColor=#F024B3;fillColor=none;" vertex="1" parent="1">
                    <mxGeometry x="90" y="150" width="90" height="50" as="geometry"/>
                </mxCell>
                <mxCell id="31" value="" style="rounded=0;whiteSpace=wrap;html=1;strokeColor=#F024B3;fillColor=none;" vertex="1" parent="1">
                    <mxGeometry x="190" y="150" width="90" height="50" as="geometry"/>
                </mxCell>
                <mxCell id="32" value="" style="rounded=0;whiteSpace=wrap;html=1;strokeColor=#F024B3;fillColor=none;" vertex="1" parent="1">
                    <mxGeometry x="290" y="150" width="90" height="50" as="geometry"/>
                </mxCell>
                <mxCell id="33" value="" style="rounded=0;whiteSpace=wrap;html=1;strokeColor=#F024B3;fillColor=none;" vertex="1" parent="1">
                    <mxGeometry x="390" y="150" width="90" height="50" as="geometry"/>
                </mxCell>
                <mxCell id="34" value="" style="rounded=0;whiteSpace=wrap;html=1;strokeColor=#F024B3;fillColor=none;" vertex="1" parent="1">
                    <mxGeometry x="490" y="150" width="90" height="50" as="geometry"/>
                </mxCell>
                <mxCell id="35" value="" style="rounded=0;whiteSpace=wrap;html=1;strokeColor=#F024B3;fillColor=none;" vertex="1" parent="1">
                    <mxGeometry x="90" y="220" width="90" height="50" as="geometry"/>
                </mxCell>
                <mxCell id="36" value="" style="rounded=0;whiteSpace=wrap;html=1;strokeColor=#F024B3;fillColor=none;" vertex="1" parent="1">
                    <mxGeometry x="190" y="220" width="90" height="50" as="geometry"/>
                </mxCell>
                <mxCell id="37" value="" style="rounded=0;whiteSpace=wrap;html=1;strokeColor=#F024B3;fillColor=none;" vertex="1" parent="1">
                    <mxGeometry x="290" y="220" width="90" height="50" as="geometry"/>
                </mxCell>
                <mxCell id="38" value="" style="rounded=0;whiteSpace=wrap;html=1;strokeColor=#F024B3;fillColor=none;" vertex="1" parent="1">
                    <mxGeometry x="390" y="220" width="90" height="50" as="geometry"/>
                </mxCell>
                <mxCell id="39" value="" style="rounded=0;whiteSpace=wrap;html=1;strokeColor=#F024B3;fillColor=none;" vertex="1" parent="1">
                    <mxGeometry x="490" y="220" width="90" height="50" as="geometry"/>
                </mxCell>
                <mxCell id="40" value="" style="rounded=0;whiteSpace=wrap;html=1;strokeColor=#F024B3;fillColor=none;" vertex="1" parent="1">
                    <mxGeometry x="90" y="290" width="90" height="50" as="geometry"/>
                </mxCell>
                <mxCell id="41" value="" style="rounded=0;whiteSpace=wrap;html=1;strokeColor=#F024B3;fillColor=none;" vertex="1" parent="1">
                    <mxGeometry x="190" y="290" width="90" height="50" as="geometry"/>
                </mxCell>
                <mxCell id="42" value="" style="rounded=0;whiteSpace=wrap;html=1;strokeColor=#F024B3;fillColor=none;" vertex="1" parent="1">
                    <mxGeometry x="290" y="290" width="90" height="50" as="geometry"/>
                </mxCell>
                <mxCell id="43" value="" style="rounded=0;whiteSpace=wrap;html=1;strokeColor=#F024B3;fillColor=none;" vertex="1" parent="1">
                    <mxGeometry x="390" y="290" width="90" height="50" as="geometry"/>
                </mxCell>
                <mxCell id="44" value="" style="rounded=0;whiteSpace=wrap;html=1;strokeColor=#F024B3;fillColor=none;" vertex="1" parent="1">
                    <mxGeometry x="490" y="290" width="90" height="50" as="geometry"/>
                </mxCell>
                <mxCell id="45" value="LOGO" style="text;html=1;strokeColor=none;fillColor=none;align=center;verticalAlign=middle;whiteSpace=wrap;rounded=0;" vertex="1" parent="1">
                    <mxGeometry x="110" y="100" width="40" height="20" as="geometry"/>
                </mxCell>
                <mxCell id="46" value="" style="rounded=0;whiteSpace=wrap;html=1;fillColor=none;strokeColor=#F0D67F;" vertex="1" parent="1">
                    <mxGeometry x="80" y="430" width="520" height="230" as="geometry"/>
                </mxCell>
                <mxCell id="47" value="" style="rounded=0;whiteSpace=wrap;html=1;fillColor=none;strokeColor=#F024B3;" vertex="1" parent="1">
                    <mxGeometry x="80" y="410" width="520" height="20" as="geometry"/>
                </mxCell>
                <mxCell id="48" value="Searchbox" style="rounded=0;whiteSpace=wrap;html=1;fillColor=none;strokeColor=#F024B3;" vertex="1" parent="1">
                    <mxGeometry x="440" y="410" width="130" height="20" as="geometry"/>
                </mxCell>
                <mxCell id="70" value="LOGO" style="text;html=1;strokeColor=none;fillColor=none;align=center;verticalAlign=middle;whiteSpace=wrap;rounded=0;" vertex="1" parent="1">
                    <mxGeometry x="110" y="410" width="40" height="20" as="geometry"/>
                </mxCell>
                <mxCell id="71" value="" style="rounded=0;whiteSpace=wrap;html=1;strokeColor=#F024B3;fillColor=none;" vertex="1" parent="1">
                    <mxGeometry x="90" y="450" width="350" height="50" as="geometry"/>
                </mxCell>
                <mxCell id="72" value="" style="rounded=0;whiteSpace=wrap;html=1;strokeColor=#F024B3;fillColor=none;" vertex="1" parent="1">
                    <mxGeometry x="450" y="450" width="140" height="150" as="geometry"/>
                </mxCell>
                <mxCell id="73" value="Following 50 Users" style="rounded=0;whiteSpace=wrap;html=1;strokeColor=#F024B3;fillColor=none;" vertex="1" parent="1">
                    <mxGeometry x="450" y="450" width="140" height="40" as="geometry"/>
                </mxCell>
                <mxCell id="74" value="" style="rounded=0;whiteSpace=wrap;html=1;strokeColor=#F024B3;fillColor=none;" vertex="1" parent="1">
                    <mxGeometry x="450" y="490" width="140" height="20" as="geometry"/>
                </mxCell>
                <mxCell id="75" value="" style="rounded=0;whiteSpace=wrap;html=1;strokeColor=#F024B3;fillColor=none;" vertex="1" parent="1">
                    <mxGeometry x="450" y="510" width="140" height="20" as="geometry"/>
                </mxCell>
                <mxCell id="76" value="" style="rounded=0;whiteSpace=wrap;html=1;strokeColor=#F024B3;fillColor=none;" vertex="1" parent="1">
                    <mxGeometry x="450" y="530" width="140" height="20" as="geometry"/>
                </mxCell>
                <mxCell id="77" value="" style="rounded=0;whiteSpace=wrap;html=1;strokeColor=#F024B3;fillColor=none;" vertex="1" parent="1">
                    <mxGeometry x="450" y="550" width="140" height="20" as="geometry"/>
                </mxCell>
                <mxCell id="80" value="" style="ellipse;whiteSpace=wrap;html=1;strokeColor=#F024B3;fillColor=none;" vertex="1" parent="1">
                    <mxGeometry x="460" y="490" width="20" height="20" as="geometry"/>
                </mxCell>
                <mxCell id="81" value="" style="ellipse;whiteSpace=wrap;html=1;strokeColor=#F024B3;fillColor=none;" vertex="1" parent="1">
                    <mxGeometry x="460" y="510" width="20" height="20" as="geometry"/>
                </mxCell>
                <mxCell id="82" value="" style="ellipse;whiteSpace=wrap;html=1;strokeColor=#F024B3;fillColor=none;" vertex="1" parent="1">
                    <mxGeometry x="460" y="530" width="20" height="20" as="geometry"/>
                </mxCell>
                <mxCell id="83" value="" style="ellipse;whiteSpace=wrap;html=1;strokeColor=#F024B3;fillColor=none;" vertex="1" parent="1">
                    <mxGeometry x="460" y="550" width="20" height="20" as="geometry"/>
                </mxCell>
                <mxCell id="85" value="" style="shape=image;verticalLabelPosition=bottom;labelBackgroundColor=#ffffff;verticalAlign=top;aspect=fixed;imageAspect=0;image=data:image/png,iVBORw0KGgoAAAANSUhEUgAABMYAAAAwCAYAAAD6iXbbAAAdEklEQVR4Ae2diXMc1Z3H8y/smVSSTWKHwCaVPYskSwjZhGs3W5VUstRuKLLZ4ggJYZewu4QN2QRiMNgYsMEQjE9s+ZJ8S5ZtybIs+ZBvaXR6ZGlkWfd92ELY1vRrfbd+r6d7Xo9mNJKRRyPpK6qrr9fv/d6nW8z4o997/bHW1lZwIQM+A3wG+AzwGeAzwGeAzwCfAT4DfAb4DPAZ4DPAZ4DPAJ+BufAMXLlyBe7yMfCHBEiABEiABEiABEiABEiABEiABEiABEiABOYIAVeKyZpibI7cdHaTBEiABEiABEiABEiABEiABEiABEiABEgAXrYYxRifBhIgARIgARIgARIgARIgARIgARIgARIggTlFgBljc+p2s7MkQAIkQAIkQAIkQAIkQAIkQAIkQAIkQAIuAYoxlwTXJEACJEACJEACJEACJEACJEACJEACJEACc4oAxdicut3sLAmQAAmQAAmQAAmQAAmQAAmQAAmQAAmQgEuAYswlwTUJkAAJkAAJkAAJkAAJkAAJkAAJkAAJkMCcIkAxNqduNztLAiRAAiRAAiRAAiRAAiRAAiRAAiRAAiTgEqAYc0lwTQIkQAIkQAIkQAIkQAIkQAIkQAIkQAIkMKcIpFSMqcYCWLJcOhRZCmE1FWK4KhvX6g4g3FwI1VqEcEshroby8EFNDnpPZ6KrZBMGAztwrakAVmcxVOcRvdhdR2F3H4XSyzHYPcdg9x7Xy2hfCey+Elh9JXPqhrKzJEACJEACJEACJEACJEACJEACJEACJEACEyOQUjHWV7IVAycycfncDvSf2YaeE1swXJWDnmOb0X1sMwYDO/FBbS6uVGdrGdZ7dhu6T2xBx5EMdB7fhMHyXQi3HIbqKNaL3VEMOyLJVJcjyOzuiCDrOY5wezH6q7InRoKlSIAESIAESIAESIAESIAESIAESIAESIAE5hSBlIqx+u1vomzFAlzIXIbSFQtQlbEEV85sR9mqF3H23RdQs/k1hPa8jZa81eg6koHKjCU4s3IBzq5YgHOrXsKlvNUINx2Cajmss8sky+zD2n0Yrs3FsKwv7MM1yUjrOAIRZNeaCxHKWz2nbig7SwIkQAIkQAIkQAIkQAIkQAIkQAIkQAIkMDECKRVjoW3LULXuZZzfsBiBFb9DbdYyXD6diYq1C3F+8+uozVqK1rxVaD+0Dp2H16M6Ywnqdr6NM+88j8CaV9BWuB7hhnwoGYrZWIBrF/bjajAXV4P7cLV2n5Zk1xsPwmor0kMtrzUdQih/zcRIsBQJkAAJkAAJkAAJkAAJkAAJkAAJkAAJkMCcIpBSMdZfvAFDpzLxwcmt6D+yAb1F6zF0Jgu9RzMwcHILhkq341rlHnxYuQe9RzIweDoTVyv2YPBMFnqObsTg6SyELxyAqs+HHcqHajjoLBcLtCxTTYU6m8xuK4LdXoyRlkIM1uQkv6GjlXhl3i2YP3++t3xhybnodR278MhtC1EePRJ3q3v7E1hcquKeu5GDo2df9+KR2Hwx3UiFxjUSq9nf+V94GNu7Ro0SyTfLFv21r46p7DvQi6yHvxTh6Wx78U4o1ug1t76aiaxHHpt4/zp24dHHtqLHRRB5Pqa2f27lXJMACZAACZAACZAACZAACZAACZAACUwXgZSKsXDpTliBXVDlu2FX7IZduQd2VTbs6hyomr1Q5/fClqVGlhxn+3wu7GAu7FpZ9kFd2O9f6g7A9kSZI8jspkLYMheZZI61FydnK+LjVr/4EukzWRE1lWJMpNi8GBl3IzEl6rzE+tiuTu+0tDeZ/o6JZYrlkcTjxhcbqxf0OBuT7Y+vKlOMSb9umbw09NXHHRIgARIgARIgARIgARIgARIgARIggbQkkFIxpk5vg3VmO6xzO2CJJCvbFRVlldmw9bLHEWYVkXVVNkarc7xFC7OaHIyKOBOBJiJNi7N9sEWahfJgXzwIu/EQRJDJfGRJf+KIMZ2x5GYZyXk3g6hjFxbv2OZlmJnyyifGIqLIzXKaXLZRb/wMJzPOmDj8GV/RbClpP17bsbLJE0lmGxFwZYse92dbmeLIgOvVIcc+Ynxmm7GxGk1CzrmMPx+5RxKHe0xz6ezx8TQz3dxrzDoldidjLN598LN15Z3veYlUZvbBVz93SIAESIAESIAESIAESIAESIAESIAE0oJASsWYdSIT1slMWKeyYLmS7OwOqNKdUIHdUCLKjEUfj8gznWkW2A0rsujyOvNMBJqTdSaSTNXmOhllkkV2sQD2pcLkoOPIILlIBIqWSnLeEGPmsEpTBkXFmCNPPCGVoP6EgSUsb4iamOGdZhxe3NJAgrpMoSQSycwWi/bDEVy+YYVSZaLsMk8oOdcl4pQ0vjExOzxNCam7dvZ1mGJL4nZFlT9Gg1sM9LjySvrx6MtY9PAXx0hFid1twy/DxrYRt+6Y9rlLAiRAAiRAAiRAAiRAAulJQEFN3Swx6dlFRkUCJEACAFIrxo5uhnV8C6ySrTAlmTqzHersDlhnt+vF3Ze1Fmgi0SKLZJ3p5VTkWORakWqqPDI0U4ZlyrBLGWYZOpj8Ro8RMc4lnsCR84YYe9Scf8y41hNKZvlI615dyaNJKLN8IkbkjRmHt+/PaNKZU3Hm5DIlkoQkIsmTTF5d0BlZURHkBO+XTkaH5LpEnLw6JxBfHH66FTk+7xYvTo+3G4LRvj9Gv7SSe+HLKIudW02kowyf7CyPGWLbi6xHX/HNNRfl6G9DQqIYc28M1yRAAiRAAiRAAiRAAjOPwABCVTVoGrRmXugTiHiorxfDEyjHIiRAArOfQGrFWNFGWEc2QYkgO7ZFSzJVshXKzSQ7mQl1MkvvyzE5Zx3brK+R66zijVBFm6CKZO0sVvEmWEc3O9eILDu3w5nDrErmKMvVwyuT3kZDbnll5Zg7t5QpajzBEylpXOuJGrN8pFg8MeYKmthMKJ8A8wKKyf6KjcPbHytozCrc7ajQiRwx+qHb1wIoQV2GgHLrk7VPRnnxREp4+wnq9FVkiEjzeGTbZenxdssYcflikYn8I8Ni5RozOy6uvIqpxxOGUs+ExVi0TTc8rkmABEiABEiABEiABEhgRhAYuYKu1gbUBEpRWlaJUM/IjAh7MkH2hyoQCLaksRz7EK3BcpSWlk5oSe++AGjtQheAYMUSrKysxMDse6Qm8/ixbBICQ0ND6O7uRltbm15kW47drJ/UirFD62EdzoASwSWiS4SWCDJXkh3fAuWKMCkjZQ9tgHVwPay8dbAOrIW1fy2sfWugclc7i2wfWOeUOZzhZKRJdlnpTmeI5fm9ydn5pJAUd7KaPIFiiq5xhjBGRY1z/Q0PpYxIplhhJkLIi8kTTZHuGfu+cgl6HyvGRCRFBZAjuWQuNS8DLKaeMW0Io3m3RIceGvHoS439MdfG1J1o+KdTLMo2NmazT+OJMS8DTmJ25acZg8TqZr5FhtS610js7naswJRz3j13s85is9HMdridPgRG21FXHULH0Oz8i2j6gGYkJEACJEACJEAC6U1AYbDpPAJjZEwlGvom9wb7lPdztB1BN+6yctTUt2HQHAqqLqP5QjXKy/yiKW2Fktkft1/jroNoSzn0CTbYXYWTpSdQBeCDxgNYe+pFLDi1GYH+NH+mJtg9Fps6ApZlaSHW39+P69evY3R0VC+yLcdEkEmZqf5JrRjLWwdVsN4RXpI9JllfxZu0JNNr2RcZVrgBVoEjw1TuGqjsVVC734O1cwWsHe9AZS6H2rwM1qalzrLlLVjb34HKWQkr/32dWaaHap7bAbtiT3JmEanjDa+bP9+QH5FMLVeUdOzCY4sX3eTJ952QRe6YMXlSTE4bokmX9u37hyuawsuFIRLJrNs/eX+kz6boci801iKCzDo8KSRlfPHE7iePz8zkim0nKqacoZ5uDGY/E4kxLd3m3aLjFvG4bfur/hcLuLG791v314nXadcfuxmL9PmR+Z/XdUss29yXFhiSTOJyhafcAzNmA+2M3VRDnQhV18X9UA73t6Euwblp77D3xaMcweY+hKc9oAkGoIVeHVr74/zJjbJvghBZjARIgARIYFwC3mekyATzH94DCFW4gqEcoQTSRLJy3IyX8lBftKnWWu94abAlenySW63BMgTbJvOP68RxJ4zVjClR3Ak5mRen//Zw8/nofSmvRLlkjJUGUNM0AHFManAQl9O1G757EHk2qy5iUOJVfQhVus+ruY72Le26ZfanLIBAIMHiiT7z9zONetNTh1Na6DliTEc20onCMyLHsnFp6h1HGnWeoUyWQLLMMDeTbLL1JiufWjG2fw3C+etgFWyAKsyAKsqAXbRRL3popCvERG5JdljOKli73oXKEhH2JqyNb8Ba/xrsVYugli+AWvJrhF/6pV6spS/Aen8J1I7fO1llkj0mQzTP7UjGYHLnY4XP5K6eOaVFFt660DefViqD94utVLbMtm6IwMgAmr1Ub/+HshrqRVOCczfU1s24yPziIR/cFUE0x5NNN6Ptj1KnEXd5sAk9ZsZbzLmZ0J2PgoLXkgAJkAAJ3BwCPvEkUigisUQieaKrrwHlFfXojw3Bd1yEVESg6c+o6PcFXxuxdYy3L/VUhMa2O841CeNOFKtZ1zhx+/pgcDIvT/vtqy2oiWQkVYa6EcYAQpWVqOv6QIc+3FWPytJSVDdq1ZTG3VG41teMmkAAwdarMq02GqsiMqw8+h2vP1SFylCPFn5p2Rnzu5wplWOCjQrd6O9UTJHp273ehDNelpsjxlrqz6BHZNiVamSdfBEr665MX3xsOa0IiPSSrLBkP1JmqodVplaM7V3tSKv8953MscINToaYmSUmUmz/WiiRYjvfhdryFtT616BWL4J6dyGsN1+AWvQcrOeewvAjP0bovvtx+s67MPRvD8J6+X9hrVmss8esfWv1PGTyFswp/ZkjYmz6xZSTmeXLQpvSG8nKpoZAGP3NtTEp6ZEP5ZEBtNZXx6Tip+EHtoAwvni4f9WWtcgmXwr+1ECbulrGxB1AdX0rtASLPVc2w7Lhpo4SayIBEiABErhRAvJZYoon/dkin+UiuczPdEN6iWAqdQSY/IPdzObypFRrbVSqSWw3KpJi60naz8RxJ4zV6I/E6clAM+6EnJIGlFYFVEskW6yqIZIVdg3Dw9GxiNfcbLKqi7h5M/1MIRKlIP/1hqqcLLhAEK3D0ezCtJ98P/a7nCeYzIw3c9v8nZxCjpOtarQaJ+LG6oixYPlLeLWqQdfaUr0UC84ewcBk22D5WUlAssVkyGSyHykjZafyJ6ViTO1ZCSt3tZMNdvB9PX+YzCGm5xHTc4lJptg6XUbteg/W1uU6Q0ytWAi17AWoV36lhVj4yZ/g+kMPou4b38SbfzYPz3z8k6j82h0YeepxJ4tsxcsIb1rmtFWUMZW8xg4RnNrap7+2yLBSd7jf9AfECNKTgMJQZwOqdXq9+YEs2zVoGCPL3DJp8oEdC3W8Lx6BaoQ6r6TnXxMTxa0lWIP3V19T9pWmc39i74uxf/HiRXAhAz4DfAZm2zNg/G8uPTd9WVQSoivAWhH0DasEfBlTkd6MORYRYJ4gc3s9ph33xPhrmZg80RDOuFfqz03/dxE3RnftXRdH1iWMe0z8LqeohPHqTeMN6Z/+w2Ci7KSrzagW4RGoRUca98MMTWmxKd9DKxHqm2Fj9ozveeX17Ri6MhR36ah3hyv7n22TQ0q3JyDGFpzYgZAEdXE7FpzIRG1KA0ze2IKSF8El9QxaWlv0fGLJ7pDMOyaT8k/lT2rF2O73oHTW2BpnLrCIFNNiTOYUi2SLyRBKteNdWBuXQq18GeqN30L97hlYT/8MVx/6Ieq+fTfqvvp1bJl3K/77D/8Uz//xJ1D+F3+L6z9+CNYzT2L4qcfR/8ufw1q3BFbOyqnkxbpIgAQ0gTAud8whMdYxmJ7zjhlfmHzyK5kYS9f+jPPbNdv+Mcz+UPDwGeAzIM9A2v8kFD5pIMbGxDYBmhRj40IabHAyqwJ1nfHLDVzUQylLAxf02wXjF0qjo8NtCEb+iOsMmVRQ0QQ4DF2+nJ5/+HQRGt/zfJmK7vnI2hWa/jkAYwqlcpdijFLtBsXi3BFje1bqN0la2SsRlqGSMhG/ZIrJ2yojb59UMoxSJtvPekeLLfXey1DLnoe14JcIP/EYer/1bbz16c9i/SfnYdnHP40lf/op5H/uNnR+5U5cfeABXH3oQQzc/w8Y+N53YS14Btb611P5vwG2RQJzjACHUk7rDTe+MDlijEMpp/V+sHESIAESmG0EYkWStx+bERW774CIzbDy9mOzsWL3J8DRq2sCZaNFYuOM7sfWF7uv64iN0933uERait2PBpDeWz31KNcZYUG0R0Yzqb5LaNRvWZchiZHMpGBLegslAOHLbagtd0YsuG+dHG45j0BVHTouOy8t0nOMNcyMOcZ8fwCNO0xR+jpzMsY4lDK9/1cwXdHNmaGUkhGmDq7HSOZyXF23BGERY8UbnbdIyrowA1be+1qMhbe8hZFVryC8+/cIH92E8LHNuLZlGXruuReZt30Jez93G/I+eyuOzP8iLv7l7Rj4u7vQfc99OH/nNzBw970Y+ecfIPzUTxF+4zfTdV/ZLgnMHQKcfH967rX+4u186ePk+9NzC9gqCZAACcx2Ar4hhq4IAuATR4myt3zHoxLKmdsz+o94XxsTAip1Ra+f0CWRQgnjThSrWXmM8DLjNrdveM40s61p2f4QTTXGZPvtF7QoCzYPoiNUE5k3thx1XWk6JNH4XuSJpMoQeiVL7Ho36ry3qDrfndw/KgZbnZcLTAvy8Ro1+hNvKGV0CKXbnxv7nRgvhI98jpPvf2SEc6mCOTP5vrpwAKp6L6zyPbDKd8OqzoFdlQ1VnYPRymyowG6oM9thHd0Ea+9KjIg8y34P4W3LYW1aivCaRbj27JO4/PCP0H/v/Wi//Q503P51DH3rXgzffR/a//E7qLrrm+i67z6MPPivsP7zcVivU4zNpV8m9nV6CaihToSq6xBvxHe4vw11Cc5Nb9Tm5PszbIL60XbNtDXeKyf1uRA6zDdVTjtoBkACJEACJDDjCBj/OPdnpIiccv9Bbsz1JYIpMvm+9FVElCspfMPBRLK5mS+RN11OmI20MdlrvMoTxJ0o1pj+aOkVL+6EnLyGZ9BGGP2Xzse8QEnudQDVjTMkw6qsHDWhdgwZQyehPtCCrzxmjlw3oyztbpD5TJUFEAjELGXu75+7TkMxJlB76nBK/844k+9rziOdKDzzIhacysalNPWsafc8zJGAJGtsvDdOyrmpnnhf0KZ2jrFQPlRwP1RNLtT5fVC1+2EHc6GCubDP52pJZpXuRPjIRlzPWo7Wp3+C5icfxeU3n8fAq8+h9oc/QPCB7+Hqs/+BkYXPYmTxrzCy5P9gLXsB1u9fxPUNS/DhlmW4vv1tqL0roWSI5kTeSjnaiDdf2o+vLIwuX91SF3302ivxi4UlqIoeibvVm1eEtwJ23HM8SAIkkMYEKJHS+OYwNBIgARIgARIggdQSUBhqqfWJsUBlEE09aZpZdYNwRNoGgk1+eXaDdd2Uy0wx5srYcddpKsYETncVTpY6YuyDxgNYe0qk2GYE+mfWCypuyn1mpT4ClmVp8dXf36/fUCkT7csib6KUYyLFpMxU/6RWjF06BNWQDyWCLJQPu+EgbFnXHdCCzK7YA+vYZoxsfQs9zzyBZV/+Ml677c9R/y/fR/l3v4PnPvNZ/OYzn0PrA9/H9cXPwXLfPFm4AdbxLVDndkJV5WjhpkJ5UI0FUE2FyZmJGIsRXxWbDsAnx5LXAoqxCUBiERIgARIgARIgARIgARIggbQnMNxVryfbD7bNTnkx2NWVvlJMPx0fQt686mVWjivFSpG2mW/uk97apV/aEKxYgpWVlRhwpnpzz3JNAj4CbmaYvH1SlmSZZL6Lb2AnpWLMbi2C3VyoZZVqOgR16RDsiwWw6/Jg1+yFdXobrD0rcO3lZ9Fw9z347Sc+hVWfnY+GO+7E6b+5Hc/80cfx5B/8CSpv/xquPv1TWKsXw9q3GlbJVliBXVC1+6AuHoSSNtqKoDqOQHUdTY4ljhgD+rHn7ULkdIwCcv6dMvRJTe2VeCu/3Mgwi2aS+cRYTBYaM8mS3waWIAESIAESIAESIAESIAESSB8C0cn30ycmRkICJEACU00gtWKsvRh2WxFEkIm8skWM6eGVubACu51J+Dcvxchvnkbfd/4J5V+7A1333IsPf/B9dN9/P4q+9FfY9YUvouWuv8f1//oZ5I2VVvZ7OstMxJh9Yb+WbUrq7yjWUkz1HEvOLK4YAyRrTAutGDFmDqscLTvtZZZFxZhItf3RYZUJ6k8eGEuQAAmQAAmQAAmQAAmQAAmQAAmQAAmQAAncLAIpFWNaVrUXQcSV3VSoh1LKPGOqMhvWiUxYB9bCyngD1qu/hvXMk7D+5+ewfvUUrOeegvWLnyH87z/CyEMPwnriUViLn4PauBRq3xqokq1Q5buhXDEm2WKdR6C6j8HuPZ6cXQJxlUiMPW3OP2Zc64kxU6RFWvfqSh4NS5AACZAACZAACZAACZAACZAACZAACZAACaSAQErFmN11FLYIq/ZiqJbDsBsPwRYxJm+pFLm1fy2srLdhrXsVasVCqJWvwFq7GNaaRc7+8t/BeudFvW9lLoeVswqqcAPU2e2wa3Kc7LOmQlhSf9dRSLbYDYsxLbziD6WkGEvBk8kmSIAESIAESIAESIAESIAESIAESIAESOAmE0ipGNMZXJLF1XnUkWOSNVafD1smzD+9DaooA2r/Gqjs96D2rICVsxJW7mooWfaugspZCSVzih1cB+twhp5w3zq7Q0sxPdl+U6GuVwu4nuOw+45D9ZckR2hkfTmFnaGQ3uT7ZgZYzBsqOZQyOV6WIAESIAESIAESIAESIAESIAESIAESIIF0JJBaMdZ7XGdw2d3HnDnAJGtM3kx5PtcZCily7NgWqOJNepE3VOq3TZ7IhJLlZJYWaNbZ7VBluyJvoNznZIo1RzPFbC3FSrQUUwMnknMX8fXSfnxlYXR5Or87el2MGHt68wmjPCffj4LiFgmQAAmQAAmQAAmQAAmQAAmQAAmQAAnMHAKpFWN9ksVVooc46jnAZCL+xkNQdQe0HLOrsh1BVrrTEV8yb1jFHtiV2TqrzK7OgV2T65S9sB92Qz7sSwWwmw/DjgyfdKWY3X8CIsUmJMYmc7/aK+EbSjmZa1mWBEiABEiABEiABEiABEiABEiABEiABEggbQikVoz1O1lcMu+XzAFmdxzRc42pSwVQoXzYdXmwLxxwltoDev4xmYNMH6/Pg6rP09lh9sUC5+2TzYXORP4dRyDDJ/WcYn0lsKWdiBSbiBgzM8WSbcMQY8nKxp6/c1Fe2tx4BkICJEACJEACJEACJEACJEACJEACJEACc51AasWYyKr+Ep01ZvcccybI7yiGkswxGVYpmV8y75jMFdZYALuxwFlfOuQcay6ELTKs5bC+Rk/ir98+eRRSn2Sj2QMnYA+e9C1TepMNMTal9bIyEiABEiABEiABEiABEiABEiABEiABEiCBlBJIqRhLac/YGAmQAAmQAAmQAAmQAAmQAAmQAAmQAAmQAAmMQ4BibBw4PEUCJEACJEACJEACJEACJEACJEACJEACJDB7CVCMzd57y56RAAmQAAmQAAmQAAmQAAmQAAmQAAmQAAmMQ4BibBw4PEUCJEACJEACJEACJEACJEACJEACJEACJDB7CVCMzd57y56RAAmQAAmQAAmQAAmQAAmQAAmQAAmQAAmMQ4BibBw4PEUCJEACJEACJEACJEACJEACJEACJEACJDB7CVCMzd57y56RAAmQAAmQAAmQAAmQAAmQAAmQAAmQAAmMQ4BibBw4PEUCJEACJEACJEACJEACJEACJEACJEACJDB7CZhi7P8B28z8zikIKTcAAAAASUVORK5CYII=;" vertex="1" parent="1">
                    <mxGeometry x="80" y="329.58" width="520" height="20.42" as="geometry"/>
                </mxCell>
                <mxCell id="86" value="" style="shape=image;verticalLabelPosition=bottom;labelBackgroundColor=#ffffff;verticalAlign=top;aspect=fixed;imageAspect=0;image=data:image/png,iVBORw0KGgoAAAANSUhEUgAABMYAAAAwCAYAAAD6iXbbAAAdEklEQVR4Ae2diXMc1Z3H8y/smVSSTWKHwCaVPYskSwjZhGs3W5VUstRuKLLZ4ggJYZewu4QN2QRiMNgYsMEQjE9s+ZJ8S5ZtybIs+ZBvaXR6ZGlkWfd92ELY1vRrfbd+r6d7Xo9mNJKRRyPpK6qrr9fv/d6nW8z4o997/bHW1lZwIQM+A3wG+AzwGeAzwGeAzwCfAT4DfAb4DPAZ4DPAZ4DPAJ+BufAMXLlyBe7yMfCHBEiABEiABEiABEiABEiABEiABEiABEiABOYIAVeKyZpibI7cdHaTBEiABEiABEiABEiABEiABEiABEiABEgAXrYYxRifBhIgARIgARIgARIgARIgARIgARIgARIggTlFgBljc+p2s7MkQAIkQAIkQAIkQAIkQAIkQAIkQAIkQAIuAYoxlwTXJEACJEACJEACJEACJEACJEACJEACJEACc4oAxdicut3sLAmQAAmQAAmQAAmQAAmQAAmQAAmQAAmQgEuAYswlwTUJkAAJkAAJkAAJkAAJkAAJkAAJkAAJkMCcIkAxNqduNztLAiRAAiRAAiRAAiRAAiRAAiRAAiRAAiTgEqAYc0lwTQIkQAIkQAIkQAIkQAIkQAIkQAIkQAIkMKcIpFSMqcYCWLJcOhRZCmE1FWK4KhvX6g4g3FwI1VqEcEshroby8EFNDnpPZ6KrZBMGAztwrakAVmcxVOcRvdhdR2F3H4XSyzHYPcdg9x7Xy2hfCey+Elh9JXPqhrKzJEACJEACJEACJEACJEACJEACJEACJEACEyOQUjHWV7IVAycycfncDvSf2YaeE1swXJWDnmOb0X1sMwYDO/FBbS6uVGdrGdZ7dhu6T2xBx5EMdB7fhMHyXQi3HIbqKNaL3VEMOyLJVJcjyOzuiCDrOY5wezH6q7InRoKlSIAESIAESIAESIAESIAESIAESIAESIAE5hSBlIqx+u1vomzFAlzIXIbSFQtQlbEEV85sR9mqF3H23RdQs/k1hPa8jZa81eg6koHKjCU4s3IBzq5YgHOrXsKlvNUINx2Cajmss8sky+zD2n0Yrs3FsKwv7MM1yUjrOAIRZNeaCxHKWz2nbig7SwIkQAIkQAIkQAIkQAIkQAIkQAIkQAIkMDECKRVjoW3LULXuZZzfsBiBFb9DbdYyXD6diYq1C3F+8+uozVqK1rxVaD+0Dp2H16M6Ywnqdr6NM+88j8CaV9BWuB7hhnwoGYrZWIBrF/bjajAXV4P7cLV2n5Zk1xsPwmor0kMtrzUdQih/zcRIsBQJkAAJkAAJkAAJkAAJkAAJkAAJkAAJkMCcIpBSMdZfvAFDpzLxwcmt6D+yAb1F6zF0Jgu9RzMwcHILhkq341rlHnxYuQe9RzIweDoTVyv2YPBMFnqObsTg6SyELxyAqs+HHcqHajjoLBcLtCxTTYU6m8xuK4LdXoyRlkIM1uQkv6GjlXhl3i2YP3++t3xhybnodR278MhtC1EePRJ3q3v7E1hcquKeu5GDo2df9+KR2Hwx3UiFxjUSq9nf+V94GNu7Ro0SyTfLFv21r46p7DvQi6yHvxTh6Wx78U4o1ug1t76aiaxHHpt4/zp24dHHtqLHRRB5Pqa2f27lXJMACZAACZAACZAACZAACZAACZAACUwXgZSKsXDpTliBXVDlu2FX7IZduQd2VTbs6hyomr1Q5/fClqVGlhxn+3wu7GAu7FpZ9kFd2O9f6g7A9kSZI8jspkLYMheZZI61FydnK+LjVr/4EukzWRE1lWJMpNi8GBl3IzEl6rzE+tiuTu+0tDeZ/o6JZYrlkcTjxhcbqxf0OBuT7Y+vKlOMSb9umbw09NXHHRIgARIgARIgARIgARIgARIgARIggbQkkFIxpk5vg3VmO6xzO2CJJCvbFRVlldmw9bLHEWYVkXVVNkarc7xFC7OaHIyKOBOBJiJNi7N9sEWahfJgXzwIu/EQRJDJfGRJf+KIMZ2x5GYZyXk3g6hjFxbv2OZlmJnyyifGIqLIzXKaXLZRb/wMJzPOmDj8GV/RbClpP17bsbLJE0lmGxFwZYse92dbmeLIgOvVIcc+Ynxmm7GxGk1CzrmMPx+5RxKHe0xz6ezx8TQz3dxrzDoldidjLN598LN15Z3veYlUZvbBVz93SIAESIAESIAESIAESIAESIAESIAE0oJASsWYdSIT1slMWKeyYLmS7OwOqNKdUIHdUCLKjEUfj8gznWkW2A0rsujyOvNMBJqTdSaSTNXmOhllkkV2sQD2pcLkoOPIILlIBIqWSnLeEGPmsEpTBkXFmCNPPCGVoP6EgSUsb4iamOGdZhxe3NJAgrpMoSQSycwWi/bDEVy+YYVSZaLsMk8oOdcl4pQ0vjExOzxNCam7dvZ1mGJL4nZFlT9Gg1sM9LjySvrx6MtY9PAXx0hFid1twy/DxrYRt+6Y9rlLAiRAAiRAAiRAAiRAAulJQEFN3Swx6dlFRkUCJEACAFIrxo5uhnV8C6ySrTAlmTqzHersDlhnt+vF3Ze1Fmgi0SKLZJ3p5VTkWORakWqqPDI0U4ZlyrBLGWYZOpj8Ro8RMc4lnsCR84YYe9Scf8y41hNKZvlI615dyaNJKLN8IkbkjRmHt+/PaNKZU3Hm5DIlkoQkIsmTTF5d0BlZURHkBO+XTkaH5LpEnLw6JxBfHH66FTk+7xYvTo+3G4LRvj9Gv7SSe+HLKIudW02kowyf7CyPGWLbi6xHX/HNNRfl6G9DQqIYc28M1yRAAiRAAiRAAiRAAjOPwABCVTVoGrRmXugTiHiorxfDEyjHIiRAArOfQGrFWNFGWEc2QYkgO7ZFSzJVshXKzSQ7mQl1MkvvyzE5Zx3brK+R66zijVBFm6CKZO0sVvEmWEc3O9eILDu3w5nDrErmKMvVwyuT3kZDbnll5Zg7t5QpajzBEylpXOuJGrN8pFg8MeYKmthMKJ8A8wKKyf6KjcPbHytozCrc7ajQiRwx+qHb1wIoQV2GgHLrk7VPRnnxREp4+wnq9FVkiEjzeGTbZenxdssYcflikYn8I8Ni5RozOy6uvIqpxxOGUs+ExVi0TTc8rkmABEiABEiABEiABEhgRhAYuYKu1gbUBEpRWlaJUM/IjAh7MkH2hyoQCLaksRz7EK3BcpSWlk5oSe++AGjtQheAYMUSrKysxMDse6Qm8/ixbBICQ0ND6O7uRltbm15kW47drJ/UirFD62EdzoASwSWiS4SWCDJXkh3fAuWKMCkjZQ9tgHVwPay8dbAOrIW1fy2sfWugclc7i2wfWOeUOZzhZKRJdlnpTmeI5fm9ydn5pJAUd7KaPIFiiq5xhjBGRY1z/Q0PpYxIplhhJkLIi8kTTZHuGfu+cgl6HyvGRCRFBZAjuWQuNS8DLKaeMW0Io3m3RIceGvHoS439MdfG1J1o+KdTLMo2NmazT+OJMS8DTmJ25acZg8TqZr5FhtS610js7naswJRz3j13s85is9HMdridPgRG21FXHULH0Oz8i2j6gGYkJEACJEACJEAC6U1AYbDpPAJjZEwlGvom9wb7lPdztB1BN+6yctTUt2HQHAqqLqP5QjXKy/yiKW2Fktkft1/jroNoSzn0CTbYXYWTpSdQBeCDxgNYe+pFLDi1GYH+NH+mJtg9Fps6ApZlaSHW39+P69evY3R0VC+yLcdEkEmZqf5JrRjLWwdVsN4RXpI9JllfxZu0JNNr2RcZVrgBVoEjw1TuGqjsVVC734O1cwWsHe9AZS6H2rwM1qalzrLlLVjb34HKWQkr/32dWaaHap7bAbtiT3JmEanjDa+bP9+QH5FMLVeUdOzCY4sX3eTJ952QRe6YMXlSTE4bokmX9u37hyuawsuFIRLJrNs/eX+kz6boci801iKCzDo8KSRlfPHE7iePz8zkim0nKqacoZ5uDGY/E4kxLd3m3aLjFvG4bfur/hcLuLG791v314nXadcfuxmL9PmR+Z/XdUss29yXFhiSTOJyhafcAzNmA+2M3VRDnQhV18X9UA73t6Euwblp77D3xaMcweY+hKc9oAkGoIVeHVr74/zJjbJvghBZjARIgARIYFwC3mekyATzH94DCFW4gqEcoQTSRLJy3IyX8lBftKnWWu94abAlenySW63BMgTbJvOP68RxJ4zVjClR3Ak5mRen//Zw8/nofSmvRLlkjJUGUNM0AHFManAQl9O1G757EHk2qy5iUOJVfQhVus+ruY72Le26ZfanLIBAIMHiiT7z9zONetNTh1Na6DliTEc20onCMyLHsnFp6h1HGnWeoUyWQLLMMDeTbLL1JiufWjG2fw3C+etgFWyAKsyAKsqAXbRRL3popCvERG5JdljOKli73oXKEhH2JqyNb8Ba/xrsVYugli+AWvJrhF/6pV6spS/Aen8J1I7fO1llkj0mQzTP7UjGYHLnY4XP5K6eOaVFFt660DefViqD94utVLbMtm6IwMgAmr1Ub/+HshrqRVOCczfU1s24yPziIR/cFUE0x5NNN6Ptj1KnEXd5sAk9ZsZbzLmZ0J2PgoLXkgAJkAAJ3BwCPvEkUigisUQieaKrrwHlFfXojw3Bd1yEVESg6c+o6PcFXxuxdYy3L/VUhMa2O841CeNOFKtZ1zhx+/pgcDIvT/vtqy2oiWQkVYa6EcYAQpWVqOv6QIc+3FWPytJSVDdq1ZTG3VG41teMmkAAwdarMq02GqsiMqw8+h2vP1SFylCPFn5p2Rnzu5wplWOCjQrd6O9UTJHp273ehDNelpsjxlrqz6BHZNiVamSdfBEr665MX3xsOa0IiPSSrLBkP1JmqodVplaM7V3tSKv8953MscINToaYmSUmUmz/WiiRYjvfhdryFtT616BWL4J6dyGsN1+AWvQcrOeewvAjP0bovvtx+s67MPRvD8J6+X9hrVmss8esfWv1PGTyFswp/ZkjYmz6xZSTmeXLQpvSG8nKpoZAGP3NtTEp6ZEP5ZEBtNZXx6Tip+EHtoAwvni4f9WWtcgmXwr+1ECbulrGxB1AdX0rtASLPVc2w7Lhpo4SayIBEiABErhRAvJZYoon/dkin+UiuczPdEN6iWAqdQSY/IPdzObypFRrbVSqSWw3KpJi60naz8RxJ4zV6I/E6clAM+6EnJIGlFYFVEskW6yqIZIVdg3Dw9GxiNfcbLKqi7h5M/1MIRKlIP/1hqqcLLhAEK3D0ezCtJ98P/a7nCeYzIw3c9v8nZxCjpOtarQaJ+LG6oixYPlLeLWqQdfaUr0UC84ewcBk22D5WUlAssVkyGSyHykjZafyJ6ViTO1ZCSt3tZMNdvB9PX+YzCGm5xHTc4lJptg6XUbteg/W1uU6Q0ytWAi17AWoV36lhVj4yZ/g+kMPou4b38SbfzYPz3z8k6j82h0YeepxJ4tsxcsIb1rmtFWUMZW8xg4RnNrap7+2yLBSd7jf9AfECNKTgMJQZwOqdXq9+YEs2zVoGCPL3DJp8oEdC3W8Lx6BaoQ6r6TnXxMTxa0lWIP3V19T9pWmc39i74uxf/HiRXAhAz4DfAZm2zNg/G8uPTd9WVQSoivAWhH0DasEfBlTkd6MORYRYJ4gc3s9ph33xPhrmZg80RDOuFfqz03/dxE3RnftXRdH1iWMe0z8LqeohPHqTeMN6Z/+w2Ci7KSrzagW4RGoRUca98MMTWmxKd9DKxHqm2Fj9ozveeX17Ri6MhR36ah3hyv7n22TQ0q3JyDGFpzYgZAEdXE7FpzIRG1KA0ze2IKSF8El9QxaWlv0fGLJ7pDMOyaT8k/lT2rF2O73oHTW2BpnLrCIFNNiTOYUi2SLyRBKteNdWBuXQq18GeqN30L97hlYT/8MVx/6Ieq+fTfqvvp1bJl3K/77D/8Uz//xJ1D+F3+L6z9+CNYzT2L4qcfR/8ufw1q3BFbOyqnkxbpIgAQ0gTAud8whMdYxmJ7zjhlfmHzyK5kYS9f+jPPbNdv+Mcz+UPDwGeAzIM9A2v8kFD5pIMbGxDYBmhRj40IabHAyqwJ1nfHLDVzUQylLAxf02wXjF0qjo8NtCEb+iOsMmVRQ0QQ4DF2+nJ5/+HQRGt/zfJmK7vnI2hWa/jkAYwqlcpdijFLtBsXi3BFje1bqN0la2SsRlqGSMhG/ZIrJ2yojb59UMoxSJtvPekeLLfXey1DLnoe14JcIP/EYer/1bbz16c9i/SfnYdnHP40lf/op5H/uNnR+5U5cfeABXH3oQQzc/w8Y+N53YS14Btb611P5vwG2RQJzjACHUk7rDTe+MDlijEMpp/V+sHESIAESmG0EYkWStx+bERW774CIzbDy9mOzsWL3J8DRq2sCZaNFYuOM7sfWF7uv64iN0933uERait2PBpDeWz31KNcZYUG0R0Yzqb5LaNRvWZchiZHMpGBLegslAOHLbagtd0YsuG+dHG45j0BVHTouOy8t0nOMNcyMOcZ8fwCNO0xR+jpzMsY4lDK9/1cwXdHNmaGUkhGmDq7HSOZyXF23BGERY8UbnbdIyrowA1be+1qMhbe8hZFVryC8+/cIH92E8LHNuLZlGXruuReZt30Jez93G/I+eyuOzP8iLv7l7Rj4u7vQfc99OH/nNzBw970Y+ecfIPzUTxF+4zfTdV/ZLgnMHQKcfH967rX+4u186ePk+9NzC9gqCZAACcx2Ar4hhq4IAuATR4myt3zHoxLKmdsz+o94XxsTAip1Ra+f0CWRQgnjThSrWXmM8DLjNrdveM40s61p2f4QTTXGZPvtF7QoCzYPoiNUE5k3thx1XWk6JNH4XuSJpMoQeiVL7Ho36ry3qDrfndw/KgZbnZcLTAvy8Ro1+hNvKGV0CKXbnxv7nRgvhI98jpPvf2SEc6mCOTP5vrpwAKp6L6zyPbDKd8OqzoFdlQ1VnYPRymyowG6oM9thHd0Ea+9KjIg8y34P4W3LYW1aivCaRbj27JO4/PCP0H/v/Wi//Q503P51DH3rXgzffR/a//E7qLrrm+i67z6MPPivsP7zcVivU4zNpV8m9nV6CaihToSq6xBvxHe4vw11Cc5Nb9Tm5PszbIL60XbNtDXeKyf1uRA6zDdVTjtoBkACJEACJDDjCBj/OPdnpIiccv9Bbsz1JYIpMvm+9FVElCspfMPBRLK5mS+RN11OmI20MdlrvMoTxJ0o1pj+aOkVL+6EnLyGZ9BGGP2Xzse8QEnudQDVjTMkw6qsHDWhdgwZQyehPtCCrzxmjlw3oyztbpD5TJUFEAjELGXu75+7TkMxJlB76nBK/844k+9rziOdKDzzIhacysalNPWsafc8zJGAJGtsvDdOyrmpnnhf0KZ2jrFQPlRwP1RNLtT5fVC1+2EHc6GCubDP52pJZpXuRPjIRlzPWo7Wp3+C5icfxeU3n8fAq8+h9oc/QPCB7+Hqs/+BkYXPYmTxrzCy5P9gLXsB1u9fxPUNS/DhlmW4vv1tqL0roWSI5kTeSjnaiDdf2o+vLIwuX91SF3302ivxi4UlqIoeibvVm1eEtwJ23HM8SAIkkMYEKJHS+OYwNBIgARIgARIggdQSUBhqqfWJsUBlEE09aZpZdYNwRNoGgk1+eXaDdd2Uy0wx5srYcddpKsYETncVTpY6YuyDxgNYe0qk2GYE+mfWCypuyn1mpT4ClmVp8dXf36/fUCkT7csib6KUYyLFpMxU/6RWjF06BNWQDyWCLJQPu+EgbFnXHdCCzK7YA+vYZoxsfQs9zzyBZV/+Ml677c9R/y/fR/l3v4PnPvNZ/OYzn0PrA9/H9cXPwXLfPFm4AdbxLVDndkJV5WjhpkJ5UI0FUE2FyZmJGIsRXxWbDsAnx5LXAoqxCUBiERIgARIgARIgARIgARIggbQnMNxVryfbD7bNTnkx2NWVvlJMPx0fQt686mVWjivFSpG2mW/uk97apV/aEKxYgpWVlRhwpnpzz3JNAj4CbmaYvH1SlmSZZL6Lb2AnpWLMbi2C3VyoZZVqOgR16RDsiwWw6/Jg1+yFdXobrD0rcO3lZ9Fw9z347Sc+hVWfnY+GO+7E6b+5Hc/80cfx5B/8CSpv/xquPv1TWKsXw9q3GlbJVliBXVC1+6AuHoSSNtqKoDqOQHUdTY4ljhgD+rHn7ULkdIwCcv6dMvRJTe2VeCu/3Mgwi2aS+cRYTBYaM8mS3waWIAESIAESIAESIAESIAESSB8C0cn30ycmRkICJEACU00gtWKsvRh2WxFEkIm8skWM6eGVubACu51J+Dcvxchvnkbfd/4J5V+7A1333IsPf/B9dN9/P4q+9FfY9YUvouWuv8f1//oZ5I2VVvZ7OstMxJh9Yb+WbUrq7yjWUkz1HEvOLK4YAyRrTAutGDFmDqscLTvtZZZFxZhItf3RYZUJ6k8eGEuQAAmQAAmQAAmQAAmQAAmQAAmQAAmQAAncLAIpFWNaVrUXQcSV3VSoh1LKPGOqMhvWiUxYB9bCyngD1qu/hvXMk7D+5+ewfvUUrOeegvWLnyH87z/CyEMPwnriUViLn4PauBRq3xqokq1Q5buhXDEm2WKdR6C6j8HuPZ6cXQJxlUiMPW3OP2Zc64kxU6RFWvfqSh4NS5AACZAACZAACZAACZAACZAACZAACZAACaSAQErFmN11FLYIq/ZiqJbDsBsPwRYxJm+pFLm1fy2srLdhrXsVasVCqJWvwFq7GNaaRc7+8t/BeudFvW9lLoeVswqqcAPU2e2wa3Kc7LOmQlhSf9dRSLbYDYsxLbziD6WkGEvBk8kmSIAESIAESIAESIAESIAESIAESIAESOAmE0ipGNMZXJLF1XnUkWOSNVafD1smzD+9DaooA2r/Gqjs96D2rICVsxJW7mooWfaugspZCSVzih1cB+twhp5w3zq7Q0sxPdl+U6GuVwu4nuOw+45D9ZckR2hkfTmFnaGQ3uT7ZgZYzBsqOZQyOV6WIAESIAESIAESIAESIAESIAESIAESIIF0JJBaMdZ7XGdw2d3HnDnAJGtM3kx5PtcZCily7NgWqOJNepE3VOq3TZ7IhJLlZJYWaNbZ7VBluyJvoNznZIo1RzPFbC3FSrQUUwMnknMX8fXSfnxlYXR5Or87el2MGHt68wmjPCffj4LiFgmQAAmQAAmQAAmQAAmQAAmQAAmQAAnMHAKpFWN9ksVVooc46jnAZCL+xkNQdQe0HLOrsh1BVrrTEV8yb1jFHtiV2TqrzK7OgV2T65S9sB92Qz7sSwWwmw/DjgyfdKWY3X8CIsUmJMYmc7/aK+EbSjmZa1mWBEiABEiABEiABEiABEiABEiABEiABEggbQikVoz1O1lcMu+XzAFmdxzRc42pSwVQoXzYdXmwLxxwltoDev4xmYNMH6/Pg6rP09lh9sUC5+2TzYXORP4dRyDDJ/WcYn0lsKWdiBSbiBgzM8WSbcMQY8nKxp6/c1Fe2tx4BkICJEACJEACJEACJEACJEACJEACJEACc51AasWYyKr+Ep01ZvcccybI7yiGkswxGVYpmV8y75jMFdZYALuxwFlfOuQcay6ELTKs5bC+Rk/ir98+eRRSn2Sj2QMnYA+e9C1TepMNMTal9bIyEiABEiABEiABEiABEiABEiABEiABEiCBlBJIqRhLac/YGAmQAAmQAAmQAAmQAAmQAAmQAAmQAAmQAAmMQ4BibBw4PEUCJEACJEACJEACJEACJEACJEACJEACJDB7CVCMzd57y56RAAmQAAmQAAmQAAmQAAmQAAmQAAmQAAmMQ4BibBw4PEUCJEACJEACJEACJEACJEACJEACJEACJDB7CVCMzd57y56RAAmQAAmQAAmQAAmQAAmQAAmQAAmQAAmMQ4BibBw4PEUCJEACJEACJEACJEACJEACJEACJEACJDB7CVCMzd57y56RAAmQAAmQAAmQAAmQAAmQAAmQAAmQAAmMQ4BibBw4PEUCJEACJEACJEACJEACJEACJEACJEACJDB7CZhi7P8B28z8zikIKTcAAAAASUVORK5CYII=;" vertex="1" parent="1">
                    <mxGeometry x="80" y="639.58" width="520" height="20.42" as="geometry"/>
                </mxCell>
            </root>
        </mxGraphModel>
    </diagram>
</mxfile>